<svg width="212" height="212" viewBox="0 0 212 212" fill="none" xmlns="http://www.w3.org/2000/svg">
<path d="M140.664 83.955V70.787C140.664 68.6202 142.891 67.168 144.874 68.0416L208.706 96.1635C209.794 96.6429 210.496 97.7197 210.496 98.9088V112.562C210.496 113.758 209.786 114.84 208.688 115.315L144.856 142.935C142.875 143.792 140.664 142.34 140.664 140.181V126.431C140.664 125.215 141.398 124.119 142.523 123.657L180.659 107.967C183.137 106.948 183.137 103.438 180.659 102.419L142.523 86.7294C141.398 86.2667 140.664 85.171 140.664 83.955Z" fill="#121937"/>
<path d="M70.8322 83.955V70.787C70.8322 68.6202 68.6055 67.168 66.6227 68.0416L2.7905 96.1635C1.70232 96.6429 1 97.7197 1 98.9088V112.562C1 113.758 1.71075 114.84 2.80867 115.315L66.6408 142.935C68.6216 143.792 70.8322 142.34 70.8322 140.181V126.431C70.8322 125.215 70.0981 124.119 68.9736 123.657L30.8378 107.967C28.3596 106.948 28.3596 103.438 30.8378 102.419L68.9736 86.7294C70.0981 86.2667 70.8322 85.171 70.8322 83.955Z" fill="#121937"/>
<path d="M131.578 43.5202L121.018 42.7263C119.203 42.5899 117.525 43.6957 116.934 45.4172L76.8769 162.193C76.027 164.671 77.7485 167.283 80.3607 167.48L90.9213 168.274C92.7361 168.41 94.4142 167.304 95.0047 165.583L135.062 48.8068C135.912 46.329 134.191 43.7165 131.578 43.5202Z" fill="#121937"/>
<g style="mix-blend-mode:hard-light" filter="url(#filter0_ii_68_2)">
<path d="M140.664 83.955V70.787C140.664 68.6202 142.891 67.168 144.874 68.0416L208.706 96.1635C209.794 96.6429 210.496 97.7197 210.496 98.9088V112.562C210.496 113.758 209.786 114.84 208.688 115.315L144.856 142.935C142.875 143.792 140.664 142.34 140.664 140.181V126.431C140.664 125.215 141.398 124.119 142.523 123.657L180.659 107.967C183.137 106.948 183.137 103.438 180.659 102.419L142.523 86.7294C141.398 86.2667 140.664 85.171 140.664 83.955Z" fill="#1E2851"/>
<path d="M70.8322 83.955V70.787C70.8322 68.6202 68.6055 67.168 66.6227 68.0416L2.7905 96.1635C1.70232 96.6429 1 97.7197 1 98.9088V112.562C1 113.758 1.71075 114.84 2.80867 115.315L66.6408 142.935C68.6216 143.792 70.8322 142.34 70.8322 140.181V126.431C70.8322 125.215 70.0981 124.119 68.9736 123.657L30.8378 107.967C28.3596 106.948 28.3596 103.438 30.8378 102.419L68.9736 86.7294C70.0981 86.2667 70.8322 85.171 70.8322 83.955Z" fill="#1E2851"/>
<path d="M131.578 43.5202L121.018 42.7263C119.203 42.5899 117.525 43.6957 116.934 45.4172L76.8769 162.193C76.027 164.671 77.7485 167.283 80.3607 167.48L90.9213 168.274C92.7361 168.41 94.4142 167.304 95.0047 165.583L135.062 48.8068C135.912 46.329 134.191 43.7165 131.578 43.5202Z" fill="#1E2851"/>
</g>
<g opacity="0.5" filter="url(#filter1_i_68_2)">
<path d="M140.664 83.955V70.787C140.664 68.6202 142.891 67.168 144.874 68.0416L208.706 96.1635C209.794 96.6429 210.496 97.7197 210.496 98.9088V112.562C210.496 113.758 209.786 114.84 208.688 115.315L144.856 142.935C142.875 143.792 140.664 142.34 140.664 140.181V126.431C140.664 125.215 141.398 124.119 142.523 123.657L180.659 107.967C183.137 106.948 183.137 103.438 180.659 102.419L142.523 86.7294C141.398 86.2667 140.664 85.171 140.664 83.955Z" fill="#111835" fill-opacity="0.5"/>
<path d="M141.164 70.787V83.955C141.164 84.9683 141.776 85.8814 142.713 86.267L180.849 101.956C183.74 103.146 183.74 107.24 180.849 108.43L142.713 124.119C141.776 124.505 141.164 125.418 141.164 126.431V140.181C141.164 141.98 143.006 143.19 144.657 142.476L208.489 114.856C209.404 114.46 209.996 113.559 209.996 112.562V98.9088C209.996 97.9179 209.411 97.0205 208.504 96.621L144.672 68.4992C143.02 67.7712 141.164 68.9813 141.164 70.787Z" stroke="white" stroke-opacity="0.57"/>
<path d="M70.8322 83.955V70.787C70.8322 68.6202 68.6055 67.168 66.6227 68.0416L2.7905 96.1635C1.70232 96.6429 1 97.7197 1 98.9088V112.562C1 113.758 1.71075 114.84 2.80867 115.315L66.6408 142.935C68.6216 143.792 70.8322 142.34 70.8322 140.181V126.431C70.8322 125.215 70.0981 124.119 68.9736 123.657L30.8378 107.967C28.3596 106.948 28.3596 103.438 30.8378 102.419L68.9736 86.7294C70.0981 86.2667 70.8322 85.171 70.8322 83.955Z" fill="#111835" fill-opacity="0.5"/>
<path d="M70.3322 70.787V83.955C70.3322 84.9683 69.7205 85.8814 68.7833 86.267L30.6476 101.956C27.7564 103.146 27.7564 107.24 30.6476 108.43L68.7833 124.119C69.7205 124.505 70.3322 125.418 70.3322 126.431V140.181C70.3322 141.98 68.49 143.19 66.8394 142.476L3.00723 114.856C2.09229 114.46 1.5 113.559 1.5 112.562V98.9088C1.5 97.9179 2.08527 97.0205 2.99208 96.621L66.8242 68.4992C68.4766 67.7712 70.3322 68.9813 70.3322 70.787Z" stroke="white" stroke-opacity="0.57"/>
<path d="M131.578 43.5202L121.018 42.7263C119.203 42.5899 117.525 43.6957 116.934 45.4172L76.8769 162.193C76.027 164.671 77.7485 167.283 80.3607 167.48L90.9213 168.274C92.7361 168.41 94.4142 167.304 95.0047 165.583L135.062 48.8068C135.912 46.329 134.191 43.7165 131.578 43.5202Z" fill="#111835" fill-opacity="0.5"/>
<path d="M120.98 43.2249L131.541 44.0188C133.827 44.1906 135.333 46.4765 134.589 48.6445L94.5318 165.421C94.0151 166.927 92.5467 167.894 90.9588 167.775L80.3981 166.981C78.1125 166.809 76.6062 164.524 77.3499 162.355L117.407 45.5794C117.924 44.0731 119.392 43.1055 120.98 43.2249Z" stroke="white" stroke-opacity="0.57"/>
</g>
<g opacity="0.5" filter="url(#filter2_i_68_2)">
<path d="M140.664 83.955V70.787C140.664 68.6202 142.891 67.168 144.874 68.0416L208.706 96.1635C209.794 96.6429 210.496 97.7197 210.496 98.9088V112.562C210.496 113.758 209.786 114.84 208.688 115.315L144.856 142.935C142.875 143.792 140.664 142.34 140.664 140.181V126.431C140.664 125.215 141.398 124.119 142.523 123.657L180.659 107.967C183.137 106.948 183.137 103.438 180.659 102.419L142.523 86.7294C141.398 86.2667 140.664 85.171 140.664 83.955Z" fill="#111835" fill-opacity="0.5"/>
<path d="M141.164 70.787V83.955C141.164 84.9683 141.776 85.8814 142.713 86.267L180.849 101.956C183.74 103.146 183.74 107.24 180.849 108.43L142.713 124.119C141.776 124.505 141.164 125.418 141.164 126.431V140.181C141.164 141.98 143.006 143.19 144.657 142.476L208.489 114.856C209.404 114.46 209.996 113.559 209.996 112.562V98.9088C209.996 97.9179 209.411 97.0205 208.504 96.621L144.672 68.4992C143.02 67.7712 141.164 68.9813 141.164 70.787Z" stroke="white" stroke-opacity="0.57"/>
<path d="M70.8322 83.955V70.787C70.8322 68.6202 68.6055 67.168 66.6227 68.0416L2.7905 96.1635C1.70232 96.6429 1 97.7197 1 98.9088V112.562C1 113.758 1.71075 114.84 2.80867 115.315L66.6408 142.935C68.6216 143.792 70.8322 142.34 70.8322 140.181V126.431C70.8322 125.215 70.0981 124.119 68.9736 123.657L30.8378 107.967C28.3596 106.948 28.3596 103.438 30.8378 102.419L68.9736 86.7294C70.0981 86.2667 70.8322 85.171 70.8322 83.955Z" fill="#111835" fill-opacity="0.5"/>
<path d="M70.3322 70.787V83.955C70.3322 84.9683 69.7205 85.8814 68.7833 86.267L30.6476 101.956C27.7564 103.146 27.7564 107.24 30.6476 108.43L68.7833 124.119C69.7205 124.505 70.3322 125.418 70.3322 126.431V140.181C70.3322 141.98 68.49 143.19 66.8394 142.476L3.00723 114.856C2.09229 114.46 1.5 113.559 1.5 112.562V98.9088C1.5 97.9179 2.08527 97.0205 2.99208 96.621L66.8242 68.4992C68.4766 67.7712 70.3322 68.9813 70.3322 70.787Z" stroke="white" stroke-opacity="0.57"/>
<path d="M131.578 43.5202L121.018 42.7263C119.203 42.5899 117.525 43.6957 116.934 45.4172L76.8769 162.193C76.027 164.671 77.7485 167.283 80.3607 167.48L90.9213 168.274C92.7361 168.41 94.4142 167.304 95.0047 165.583L135.062 48.8068C135.912 46.329 134.191 43.7165 131.578 43.5202Z" fill="#111835" fill-opacity="0.5"/>
<path d="M120.98 43.2249L131.541 44.0188C133.827 44.1906 135.333 46.4765 134.589 48.6445L94.5318 165.421C94.0151 166.927 92.5467 167.894 90.9588 167.775L80.3981 166.981C78.1125 166.809 76.6062 164.524 77.3499 162.355L117.407 45.5794C117.924 44.0731 119.392 43.1055 120.98 43.2249Z" stroke="white" stroke-opacity="0.57"/>
</g>
<defs>
<filter id="filter0_ii_68_2" x="1" y="42.715" width="209.496" height="125.57" filterUnits="userSpaceOnUse" color-interpolation-filters="sRGB">
<feFlood flood-opacity="0" result="BackgroundImageFix"/>
<feBlend mode="normal" in="SourceGraphic" in2="BackgroundImageFix" result="shape"/>
<feColorMatrix in="SourceAlpha" type="matrix" values="0 0 0 0 0 0 0 0 0 0 0 0 0 0 0 0 0 0 127 0" result="hardAlpha"/>
<feOffset/>
<feGaussianBlur stdDeviation="4.6"/>
<feComposite in2="hardAlpha" operator="arithmetic" k2="-1" k3="1"/>
<feColorMatrix type="matrix" values="0 0 0 0 1 0 0 0 0 1 0 0 0 0 1 0 0 0 1 0"/>
<feBlend mode="normal" in2="shape" result="effect1_innerShadow_68_2"/>
<feColorMatrix in="SourceAlpha" type="matrix" values="0 0 0 0 0 0 0 0 0 0 0 0 0 0 0 0 0 0 127 0" result="hardAlpha"/>
<feOffset/>
<feGaussianBlur stdDeviation="4.6"/>
<feComposite in2="hardAlpha" operator="arithmetic" k2="-1" k3="1"/>
<feColorMatrix type="matrix" values="0 0 0 0 1 0 0 0 0 1 0 0 0 0 1 0 0 0 1 0"/>
<feBlend mode="normal" in2="effect1_innerShadow_68_2" result="effect2_innerShadow_68_2"/>
</filter>
<filter id="filter1_i_68_2" x="1" y="42.715" width="209.496" height="125.57" filterUnits="userSpaceOnUse" color-interpolation-filters="sRGB">
<feFlood flood-opacity="0" result="BackgroundImageFix"/>
<feBlend mode="normal" in="SourceGraphic" in2="BackgroundImageFix" result="shape"/>
<feColorMatrix in="SourceAlpha" type="matrix" values="0 0 0 0 0 0 0 0 0 0 0 0 0 0 0 0 0 0 127 0" result="hardAlpha"/>
<feOffset/>
<feGaussianBlur stdDeviation="0.5"/>
<feComposite in2="hardAlpha" operator="arithmetic" k2="-1" k3="1"/>
<feColorMatrix type="matrix" values="0 0 0 0 1 0 0 0 0 1 0 0 0 0 1 0 0 0 1 0"/>
<feBlend mode="normal" in2="shape" result="effect1_innerShadow_68_2"/>
</filter>
<filter id="filter2_i_68_2" x="1" y="42.715" width="209.496" height="125.57" filterUnits="userSpaceOnUse" color-interpolation-filters="sRGB">
<feFlood flood-opacity="0" result="BackgroundImageFix"/>
<feBlend mode="normal" in="SourceGraphic" in2="BackgroundImageFix" result="shape"/>
<feColorMatrix in="SourceAlpha" type="matrix" values="0 0 0 0 0 0 0 0 0 0 0 0 0 0 0 0 0 0 127 0" result="hardAlpha"/>
<feOffset/>
<feGaussianBlur stdDeviation="0.5"/>
<feComposite in2="hardAlpha" operator="arithmetic" k2="-1" k3="1"/>
<feColorMatrix type="matrix" values="0 0 0 0 1 0 0 0 0 1 0 0 0 0 1 0 0 0 1 0"/>
<feBlend mode="normal" in2="shape" result="effect1_innerShadow_68_2"/>
</filter>
</defs>
</svg>
